<svg width="174" height="54" viewBox="0 0 174 54" fill="none" xmlns="http://www.w3.org/2000/svg">
<rect y="1" width="174" height="49" fill="#081D34"/>
<g filter="url(#filter0_f_2_7)">
<path d="M15.32 43.365C12.59 43.365 10.34 42.57 8.57 40.98C6.74 39.33 5.825 37.14 5.825 34.41C5.825 32.04 6.53 30.03 7.94 28.38C9.41 26.64 11.345 25.77 13.745 25.77C13.895 25.77 14.045 25.785 14.195 25.815C14.375 25.815 14.525 25.815 14.645 25.815C16.085 25.995 17.285 26.7 18.245 27.93C19.235 29.13 19.73 30.45 19.73 31.89C19.73 33.51 19.07 34.935 17.75 36.165C16.46 37.335 14.99 37.92 13.34 37.92C13.01 37.92 12.845 37.86 12.845 37.74C12.845 37.65 13.115 37.56 13.655 37.47C14.465 37.38 15.185 37.17 15.815 36.84C16.445 36.51 17 36.09 17.48 35.58C18.38 34.53 18.83 33.195 18.83 31.575C18.83 30.345 18.47 29.235 17.75 28.245C16.91 27.165 15.92 26.565 14.78 26.445C14.66 26.445 14.51 26.445 14.33 26.445C14.18 26.415 14.015 26.4 13.835 26.4C11.645 26.4 9.845 27.135 8.435 28.605C7.115 30.075 6.455 31.905 6.455 34.095C6.455 36.645 7.22 38.715 8.75 40.305C10.34 41.895 12.395 42.69 14.915 42.69C15.065 42.69 15.2 42.675 15.32 42.645C15.47 42.645 15.59 42.645 15.68 42.645C18.35 42.375 20.75 41.13 22.88 38.91C24.11 37.62 25.7 35.355 27.65 32.115C28.1 31.335 28.655 30.39 29.315 29.28C30.005 28.14 30.83 26.835 31.79 25.365C33.26 23.145 34.775 21.21 36.335 19.56C37.895 17.88 39.485 16.485 41.105 15.375C37.685 13.605 35.57 12.57 34.76 12.27C32.21 11.22 29.945 10.695 27.965 10.695C27.215 10.695 26.48 10.77 25.76 10.92C25.04 11.07 24.35 11.28 23.69 11.55C22.13 12.18 20.855 13.215 19.865 14.655C18.845 16.095 18.335 17.64 18.335 19.29C18.335 21.03 18.92 22.44 20.09 23.52C21.26 24.6 22.715 25.14 24.455 25.14C26.165 25.14 27.74 24.585 29.18 23.475C30.62 22.305 31.34 20.835 31.34 19.065C31.34 17.835 30.95 16.755 30.17 15.825C29.36 14.865 28.325 14.385 27.065 14.385C26.075 14.385 25.19 14.73 24.41 15.42C23.6 16.14 23.195 16.995 23.195 17.985C23.195 18.645 23.405 19.155 23.825 19.515C24.245 19.905 24.455 20.16 24.455 20.28C24.455 20.31 24.44 20.34 24.41 20.37C24.32 20.37 24.185 20.31 24.005 20.19C23.195 19.59 22.79 18.825 22.79 17.895C22.79 16.755 23.24 15.81 24.14 15.06C24.98 14.31 25.985 13.935 27.155 13.935C28.475 13.935 29.645 14.415 30.665 15.375C31.625 16.395 32.105 17.58 32.105 18.93C32.105 20.85 31.28 22.485 29.63 23.835C28.04 25.155 26.285 25.815 24.365 25.815C22.325 25.815 20.675 25.155 19.415 23.835C18.125 22.575 17.48 20.91 17.48 18.84C17.48 16.98 17.975 15.27 18.965 13.71C20.045 12.03 21.41 10.905 23.06 10.335C24.59 9.765 26.18 9.48 27.83 9.48C28.97 9.48 30.14 9.63 31.34 9.93C32.57 10.2 33.815 10.665 35.075 11.325C36.185 11.895 37.28 12.495 38.36 13.125C39.44 13.755 40.535 14.37 41.645 14.97C43.625 13.68 45.35 13.035 46.82 13.035C47.48 13.035 48.125 13.215 48.755 13.575C49.505 14.025 49.88 14.55 49.88 15.15C49.88 15.84 49.505 16.38 48.755 16.77C48.125 17.13 47.45 17.31 46.73 17.31C46.22 17.31 45.575 17.19 44.795 16.95C44.405 17.58 44.045 18.345 43.715 19.245C43.415 20.145 43.19 21.195 43.04 22.395C42.95 22.965 42.86 23.745 42.77 24.735C42.71 25.695 42.65 26.865 42.59 28.245C42.32 33.735 41.48 37.32 40.07 39C40.61 38.94 41.24 38.655 41.96 38.145C44.72 36.195 47.36 31.98 49.88 25.5C54.41 13.95 59.42 8.175 64.91 8.175C66.2 8.175 67.235 8.415 68.015 8.895C69.005 9.465 69.5 10.35 69.5 11.55C69.5 11.67 69.47 11.835 69.41 12.045C69.35 12.255 69.275 12.48 69.185 12.72C69.005 13.32 68.795 13.62 68.555 13.62C68.465 13.62 68.42 13.53 68.42 13.35H68.375C68.525 13.08 68.63 12.825 68.69 12.585C68.78 12.315 68.825 12.06 68.825 11.82C68.825 11.07 68.48 10.44 67.79 9.93C67.16 9.48 66.44 9.255 65.63 9.255C63.92 9.255 62.225 9.915 60.545 11.235C59.435 12.075 58.385 13.095 57.395 14.295C56.405 15.465 55.46 16.8 54.56 18.3C53.96 19.26 53.315 20.445 52.625 21.855C51.935 23.235 51.185 24.84 50.375 26.67C49.625 28.32 48.935 29.775 48.305 31.035C47.675 32.295 47.09 33.33 46.55 34.14C44.72 36.87 42.68 38.685 40.43 39.585C39.95 39.765 39.5 39.9 39.08 39.99C38.66 40.11 38.285 40.17 37.955 40.17C37.685 40.17 37.49 40.14 37.37 40.08L37.28 40.035C37.28 39.975 37.52 39.855 38 39.675C38.78 39.405 39.425 38.91 39.935 38.19C40.175 37.86 40.295 37.14 40.295 36.03C40.295 35.67 40.28 35.22 40.25 34.68C40.22 34.11 40.175 33.45 40.115 32.7C40.055 31.92 40.01 31.26 39.98 30.72C39.95 30.18 39.935 29.715 39.935 29.325C39.935 27.105 40.235 24.87 40.835 22.62C41.555 19.92 42.59 17.94 43.94 16.68C43.61 16.53 43.235 16.365 42.815 16.185C42.395 15.975 41.945 15.765 41.465 15.555C39.845 16.725 38.195 18.285 36.515 20.235C35.705 21.195 34.97 22.155 34.31 23.115C33.65 24.045 33.095 24.975 32.645 25.905C32.405 26.385 32.12 27 31.79 27.75C31.46 28.47 31.04 29.31 30.53 30.27C26.45 38.28 21.68 42.63 16.22 43.32C16.1 43.35 15.965 43.365 15.815 43.365C15.665 43.365 15.5 43.365 15.32 43.365ZM46.82 16.995C48.2 16.995 48.89 16.53 48.89 15.6C48.89 15.06 48.56 14.58 47.9 14.16C47.3 13.83 46.7 13.665 46.1 13.665C44.93 13.665 43.565 14.175 42.005 15.195C42.425 15.405 42.83 15.615 43.22 15.825C43.61 16.005 43.985 16.17 44.345 16.32C44.975 15.78 45.47 15.51 45.83 15.51C46.01 15.51 46.1 15.57 46.1 15.69C46.1 15.78 46.04 15.825 45.92 15.825C45.62 16.035 45.335 16.29 45.065 16.59C45.785 16.86 46.37 16.995 46.82 16.995ZM66.9586 41.16C63.4186 41.16 60.6586 40.08 58.6786 37.92C56.7586 35.88 55.7986 33.06 55.7986 29.46C55.7986 25.14 57.0886 21.345 59.6686 18.075C57.5686 16.515 56.5186 14.82 56.5186 12.99C56.5186 10.62 58.0036 9.435 60.9736 9.435C62.7436 9.435 64.4536 9.945 66.1036 10.965C66.2236 10.995 66.2836 11.115 66.2836 11.325C66.2836 11.385 66.2536 11.415 66.1936 11.415C66.1636 11.415 66.0736 11.37 65.9236 11.28C64.3936 10.47 62.9536 10.065 61.6036 10.065C58.7836 10.065 57.3736 11.175 57.3736 13.395C57.3736 14.895 58.2586 16.32 60.0286 17.67C63.1486 14.01 67.7536 12.18 73.8436 12.18C75.8836 12.18 77.6536 12.465 79.1536 13.035C81.1936 13.785 82.3786 14.985 82.7086 16.635C82.7386 16.695 82.7536 16.815 82.7536 16.995C82.7536 18.135 82.0336 19.155 80.5936 20.055C81.5236 21.645 81.9886 23.595 81.9886 25.905C81.9886 28.545 81.3736 30.93 80.1436 33.06C78.7036 35.49 76.8586 37.425 74.6086 38.865C72.1786 40.395 69.6286 41.16 66.9586 41.16ZM71.4136 21.27C74.5336 21.27 77.1436 20.745 79.2436 19.695C78.4936 18.165 77.4286 17.4 76.0486 17.4C75.9886 17.4 75.9136 17.415 75.8236 17.445C75.7336 17.445 75.6286 17.46 75.5086 17.49C75.3886 17.52 75.2836 17.535 75.1936 17.535C75.1036 17.535 75.0286 17.535 74.9686 17.535C74.6386 17.535 74.4736 17.445 74.4736 17.265C74.4736 16.995 74.8486 16.86 75.5986 16.86C77.3986 16.86 78.8836 17.64 80.0536 19.2C81.1336 18.48 81.6736 17.685 81.6736 16.815C81.6736 14.085 79.2136 12.72 74.2936 12.72C69.3736 12.72 65.3536 14.835 62.2336 19.065C63.6436 19.785 65.1136 20.34 66.6436 20.73C68.1736 21.09 69.7636 21.27 71.4136 21.27ZM67.7236 40.485C69.9136 40.485 72.1336 39.525 74.3836 37.605C76.2736 35.985 77.8036 34.02 78.9736 31.71C79.8736 29.91 80.3236 27.705 80.3236 25.095C80.3236 23.355 80.0986 21.855 79.6486 20.595C78.7186 20.985 77.6536 21.3 76.4536 21.54C75.2836 21.75 73.9936 21.855 72.5836 21.855C68.5936 21.855 65.0386 21.06 61.9186 19.47C59.7286 22.56 58.6336 26.07 58.6336 30C58.6336 32.82 59.2936 35.145 60.6136 36.975C62.0236 38.925 64.1086 40.08 66.8686 40.44C66.9886 40.44 67.1236 40.44 67.2736 40.44C67.4236 40.47 67.5736 40.485 67.7236 40.485ZM91.9167 41.52C89.4867 41.52 87.3867 40.785 85.6167 39.315C83.6367 37.785 82.6467 35.85 82.6467 33.51C82.6467 31.11 83.5017 28.965 85.2117 27.075C86.8617 25.245 88.8867 24.105 91.2867 23.655C91.2267 23.325 91.1667 22.995 91.1067 22.665C91.0767 22.335 91.0617 22.005 91.0617 21.675C91.0617 20.085 91.4217 18.51 92.1417 16.95C92.9217 15.24 93.9267 13.995 95.1567 13.215C97.5267 11.655 100.287 10.875 103.437 10.875C105.687 10.875 108.282 11.31 111.222 12.18C111.642 12.3 112.467 12.585 113.697 13.035C114.957 13.455 116.622 14.055 118.692 14.835C120.522 13.635 122.217 13.035 123.777 13.035C125.277 13.035 126.027 13.575 126.027 14.655C126.027 15.765 125.052 16.32 123.102 16.32C122.022 16.32 120.687 16.05 119.097 15.51C117.177 17.49 115.302 20.655 113.472 25.005C111.522 29.685 109.032 33.345 106.002 35.985C104.952 36.915 103.902 37.71 102.852 38.37C101.832 39.03 100.812 39.57 99.7917 39.99C98.7717 40.38 97.6617 40.725 96.4617 41.025C95.2617 41.355 93.9567 41.52 92.5467 41.52H91.9167ZM92.5917 40.845C95.3217 40.845 98.0367 39.765 100.737 37.605C101.847 36.735 102.897 35.745 103.887 34.635C104.877 33.495 105.807 32.235 106.677 30.855C107.097 30.165 107.622 29.31 108.252 28.29C108.882 27.24 109.617 26.04 110.457 24.69C111.207 23.55 111.987 22.41 112.797 21.27C113.637 20.13 114.507 18.99 115.407 17.85C115.827 17.34 116.262 16.875 116.712 16.455C117.192 16.005 117.687 15.585 118.197 15.195C112.167 13.215 107.622 12.225 104.562 12.225C100.932 12.225 98.0067 13.23 95.7867 15.24C94.8567 16.08 94.0767 17.16 93.4467 18.48C92.8767 19.74 92.5917 21.03 92.5917 22.35C92.5917 22.56 92.5917 22.755 92.5917 22.935C92.5917 23.115 92.6067 23.295 92.6367 23.475C92.7867 23.445 92.9217 23.43 93.0417 23.43C93.1617 23.43 93.2817 23.43 93.4017 23.43C96.6117 23.43 98.5917 24.75 99.3417 27.39C100.662 26.82 101.802 26.01 102.762 24.96C103.782 23.79 104.427 22.545 104.697 21.225C104.697 21.225 104.682 21.21 104.652 21.18C104.652 21.15 104.652 21.105 104.652 21.045C104.652 20.805 104.727 20.685 104.877 20.685C104.997 20.685 105.057 20.76 105.057 20.91C105.057 20.94 105.057 20.985 105.057 21.045C105.057 21.105 105.042 21.18 105.012 21.27C104.232 24.48 102.372 26.67 99.4317 27.84C99.4617 28.05 99.4767 28.26 99.4767 28.47C99.5067 28.65 99.5217 28.845 99.5217 29.055C99.5217 30.915 98.7867 32.49 97.3167 33.78C95.9067 35.07 94.2567 35.715 92.3667 35.715C92.1567 35.715 92.0517 35.64 92.0517 35.49C92.0517 35.28 92.2017 35.16 92.5017 35.13C94.4217 34.92 95.9517 34.305 97.0917 33.285C98.3517 32.145 98.9817 30.645 98.9817 28.785C98.9817 28.635 98.9667 28.5 98.9367 28.38C98.9367 28.26 98.9367 28.14 98.9367 28.02C98.2767 28.23 97.5717 28.335 96.8217 28.335C95.5317 28.335 94.4067 27.96 93.4467 27.21C92.9667 26.82 92.5617 26.385 92.2317 25.905C91.9017 25.425 91.6467 24.87 91.4667 24.24C89.3967 24.96 87.6867 26.25 86.3367 28.11C85.0167 29.97 84.3567 31.965 84.3567 34.095C84.3567 36.345 85.1817 38.085 86.8317 39.315C88.3017 40.335 90.2217 40.845 92.5917 40.845ZM123.102 15.96C124.752 15.96 125.577 15.525 125.577 14.655C125.577 13.725 124.947 13.26 123.687 13.26C122.247 13.26 120.852 13.89 119.502 15.15C121.032 15.69 122.232 15.96 123.102 15.96ZM97.0017 27.885C97.6017 27.885 98.2167 27.78 98.8467 27.57C98.5167 26.43 97.8567 25.515 96.8667 24.825C95.8767 24.165 94.7967 23.835 93.6267 23.835C93.5067 23.835 93.3567 23.85 93.1767 23.88C93.0267 23.88 92.8767 23.895 92.7267 23.925C92.9967 24.975 93.4917 25.89 94.2117 26.67C95.0217 27.48 95.9517 27.885 97.0017 27.885ZM127.97 42.375C125.21 42.375 122.93 41.655 121.13 40.215C119.15 38.625 118.16 36.495 118.16 33.825C118.16 33.015 118.25 32.25 118.43 31.53C119.24 28.71 120.8 26.46 123.11 24.78C125.3 23.19 127.91 22.23 130.94 21.9C130.01 20.97 129.545 19.86 129.545 18.57C129.545 16.59 130.475 14.985 132.335 13.755C133.955 12.675 135.815 12.135 137.915 12.135C141.395 12.135 143.135 13.32 143.135 15.69C143.135 16.65 142.775 17.49 142.055 18.21C141.335 18.93 140.495 19.29 139.535 19.29C139.055 19.29 138.605 19.185 138.185 18.975C137.705 18.705 137.465 18.345 137.465 17.895C137.465 17.715 137.495 17.58 137.555 17.49C137.555 17.31 137.615 17.22 137.735 17.22C137.825 17.22 137.87 17.28 137.87 17.4C137.87 17.49 137.855 17.565 137.825 17.625C137.765 17.805 137.735 17.91 137.735 17.94C137.735 18.51 138.02 18.795 138.59 18.795C139.55 18.795 140.375 18.51 141.065 17.94C141.845 17.34 142.235 16.605 142.235 15.735C142.235 14.745 141.83 13.965 141.02 13.395C140.27 12.885 139.4 12.63 138.41 12.63C136.4 12.63 134.69 13.245 133.28 14.475C131.81 15.735 131.075 17.37 131.075 19.38C131.075 20.34 131.3 21.165 131.75 21.855C131.96 21.825 132.155 21.81 132.335 21.81C132.515 21.81 132.695 21.81 132.875 21.81C136.205 21.81 137.87 22.26 137.87 23.16C137.87 23.79 137.33 24.105 136.25 24.105C134.54 24.105 133.025 23.61 131.705 22.62C125.915 23.67 122.375 26.655 121.085 31.575C120.875 32.295 120.77 33.105 120.77 34.005C120.77 36.345 121.505 38.205 122.975 39.585C124.415 40.995 126.32 41.7 128.69 41.7C131.6 41.7 134.225 40.77 136.565 38.91C139.055 36.93 140.3 34.53 140.3 31.71C140.3 29.22 139.235 27.975 137.105 27.975C136.295 27.975 135.59 28.2 134.99 28.65C134.33 29.13 134 29.775 134 30.585C134 31.095 133.955 31.35 133.865 31.35C133.625 31.35 133.505 31.095 133.505 30.585C133.505 30.465 133.52 30.33 133.55 30.18C133.58 30 133.64 29.805 133.73 29.595C134.33 28.155 135.62 27.435 137.6 27.435C138.95 27.435 140.03 27.855 140.84 28.695C141.59 29.535 141.965 30.66 141.965 32.07C141.965 35.16 140.36 37.725 137.15 39.765C134.3 41.505 131.24 42.375 127.97 42.375ZM135.575 23.655C136.505 23.655 136.97 23.46 136.97 23.07C136.97 22.56 136.295 22.305 134.945 22.305C134.525 22.305 134.09 22.32 133.64 22.35C133.22 22.38 132.8 22.425 132.38 22.485C133.31 23.265 134.375 23.655 135.575 23.655ZM153.833 43.635C153.713 43.575 153.593 43.53 153.473 43.5C153.353 43.47 153.218 43.425 153.068 43.365C151.478 42.825 150.338 41.97 149.648 40.8C147.188 40.44 145.208 39.555 143.708 38.145C142.148 36.615 141.368 34.62 141.368 32.16C141.368 28.86 142.568 26.01 144.968 23.61C147.338 21.24 150.188 20.055 153.518 20.055C155.858 20.055 157.703 20.67 159.053 21.9C159.713 21.39 160.523 20.76 161.483 20.01C162.473 19.23 163.613 18.33 164.903 17.31V16.455C164.903 12.645 165.788 10.74 167.558 10.74C167.978 10.74 168.353 10.905 168.683 11.235C169.043 11.535 169.223 11.895 169.223 12.315C169.223 13.515 168.008 15.18 165.578 17.31C165.638 17.73 165.773 18.375 165.983 19.245C166.193 20.085 166.493 21.135 166.883 22.395C167.513 24.495 167.828 26.235 167.828 27.615C167.828 31.515 166.088 34.77 162.608 37.38C159.368 39.75 155.753 40.935 151.763 40.935C151.523 40.935 151.268 40.92 150.998 40.89C150.728 40.89 150.473 40.875 150.233 40.845C150.833 41.835 151.748 42.54 152.978 42.96C153.248 43.08 153.443 43.14 153.563 43.14C153.653 43.14 153.833 43.095 154.103 43.005C154.343 42.915 154.508 42.87 154.598 42.87C154.778 42.87 154.868 42.96 154.868 43.14C154.868 43.47 154.523 43.635 153.833 43.635ZM165.488 16.77C167.708 14.82 168.818 13.26 168.818 12.09C168.818 11.49 168.428 11.19 167.648 11.19C166.178 11.19 165.443 12.63 165.443 15.51C165.443 15.72 165.443 15.93 165.443 16.14C165.443 16.32 165.458 16.53 165.488 16.77ZM149.873 40.125C151.703 40.125 153.668 39.585 155.768 38.505C156.698 38.025 157.583 37.5 158.423 36.93C159.293 36.33 160.103 35.67 160.853 34.95C161.963 33.9 162.713 32.955 163.103 32.115C164.573 29.265 165.308 26.325 165.308 23.295C165.308 23.505 165.278 23.16 165.218 22.26C165.158 21.36 165.068 19.89 164.948 17.85C164.318 18.33 163.538 18.945 162.608 19.695C161.708 20.415 160.643 21.27 159.413 22.26C160.433 23.28 160.943 24.54 160.943 26.04C160.943 28.05 160.223 29.76 158.783 31.17C157.313 32.61 155.573 33.33 153.563 33.33C152.423 33.33 151.478 33.075 150.728 32.565C149.858 34.545 149.423 36.27 149.423 37.74C149.423 38.19 149.468 38.61 149.558 39C149.648 39.42 149.753 39.795 149.873 40.125ZM149.378 40.125C149.108 39.495 148.973 38.76 148.973 37.92C148.973 36.27 149.423 34.365 150.323 32.205C149.603 31.515 149.243 30.675 149.243 29.685C149.243 29.325 149.333 28.905 149.513 28.425C149.753 27.795 149.993 27.48 150.233 27.48C150.293 27.48 150.353 27.51 150.413 27.57C150.353 27.75 150.278 27.855 150.188 27.885H150.233C149.813 28.485 149.603 29.115 149.603 29.775C149.603 30.555 149.888 31.245 150.458 31.845C151.808 28.815 154.418 25.71 158.288 22.53C156.968 21.3 155.303 20.685 153.293 20.685C150.473 20.685 147.908 21.945 145.598 24.465C143.348 26.895 142.223 29.55 142.223 32.43C142.223 34.44 142.913 36.195 144.293 37.695C144.983 38.445 145.748 39.015 146.588 39.405C147.428 39.825 148.358 40.065 149.378 40.125ZM153.383 33.015C155.003 33.015 156.503 32.28 157.883 30.81C159.263 29.34 159.953 27.81 159.953 26.22C159.953 25.02 159.518 23.91 158.648 22.89C156.788 24.45 155.213 26.025 153.923 27.615C152.633 29.175 151.628 30.72 150.908 32.25C151.598 32.76 152.423 33.015 153.383 33.015Z" fill="white"/>
</g>
<defs>
<filter id="filter0_f_2_7" x="5.325" y="7.675" width="164.398" height="36.46" filterUnits="userSpaceOnUse" color-interpolation-filters="sRGB">
<feFlood flood-opacity="0" result="BackgroundImageFix"/>
<feBlend mode="normal" in="SourceGraphic" in2="BackgroundImageFix" result="shape"/>
<feGaussianBlur stdDeviation="0.25" result="effect1_foregroundBlur_2_7"/>
</filter>
</defs>
</svg>
